<svg id="visual" viewBox="0 0 900 600" width="900" height="600" xmlns="http://www.w3.org/2000/svg" xmlns:xlink="http://www.w3.org/1999/xlink" version="1.1"><rect width="900" height="600" fill="#222831"></rect><g><g transform="translate(184 591)"><path d="M0 -158.7L137.4 -79.3L137.4 79.3L0 158.7L-137.4 79.3L-137.4 -79.3Z" fill="none" stroke="#1f94ca" stroke-width="2"></path></g><g transform="translate(804 11)"><path d="M0 -130L112.6 -65L112.6 65L0 130L-112.6 65L-112.6 -65Z" stroke="#1f94ca" fill="none" stroke-width="2"></path></g><g transform="translate(27 75)"><path d="M0 -118L102.2 -59L102.2 59L0 118L-102.2 59L-102.2 -59Z" stroke="#1f94ca" fill="none" stroke-width="2"></path></g><g transform="translate(641 419)"><path d="M0 -147L127.3 -73.5L127.3 73.5L0 147L-127.3 73.5L-127.3 -73.5Z" stroke="#1f94ca" fill="none" stroke-width="2"></path></g></g></svg>