<svg id="visual" viewBox="0 0 960 540" width="960" height="540" xmlns="http://www.w3.org/2000/svg" xmlns:xlink="http://www.w3.org/1999/xlink" version="1.1"><rect width="960" height="540" fill="#DBE2EF"></rect><g><g transform="translate(223 323)"><path d="M0 -155.5L134.6 -77.7L134.6 77.7L0 155.5L-134.6 77.7L-134.6 -77.7Z" fill="none" stroke="#5f5f5f" stroke-width="2"></path></g><g transform="translate(508 88)"><path d="M0 -87L75.3 -43.5L75.3 43.5L0 87L-75.3 43.5L-75.3 -43.5Z" fill="none" stroke="#5f5f5f" stroke-width="2"></path></g><g transform="translate(663 471)"><path d="M0 -124L107.4 -62L107.4 62L0 124L-107.4 62L-107.4 -62Z" stroke="#5f5f5f" fill="none" stroke-width="2"></path></g><g transform="translate(926 34)"><path d="M0 -114L98.7 -57L98.7 57L0 114L-98.7 57L-98.7 -57Z" stroke="#5f5f5f" fill="none" stroke-width="2"></path></g></g></svg>